<?xml version="1.0" encoding="utf-8"?>
<!-- Generator: Adobe Illustrator 27.5.0, SVG Export Plug-In . SVG Version: 6.00 Build 0)  -->
<svg version="1.1" xmlns="http://www.w3.org/2000/svg" xmlns:xlink="http://www.w3.org/1999/xlink" x="0px" y="0px"
	 viewBox="0 0 750 500" style="enable-background:new 0 0 750 500;" xml:space="preserve">
<g id="BACKGROUND">
	<rect x="125" style="fill:#FFFFFF;" width="500" height="500"/>
</g>
<g id="OBJECTS">
	<path style="fill:#E9E5FE;" d="M683.789,167.548c9.197-34.147-4.166-73.245-32.339-94.619
		c-21.979-16.675-50.954-22.363-78.416-19.724c-27.462,2.639-53.654,12.99-78.105,25.767c-15.998,8.36-31.679,17.9-49.181,22.32
		c-38.456,9.712-69.692-8.398-105.317-18.588c-30.384-8.691-63.482-20.474-95.382-18.398c-29.001,1.888-59.096,18.501-67.623,46.284
		c-4.36,14.208-2.78,29.84-7.993,43.757c-11.421,30.483-48.449,40.283-76.46,56.867c-18.987,11.241-35.428,27.516-44.382,47.682
		c-8.955,20.166-9.79,44.359,0.178,64.044c11.149,22.016,33.533,35.665,54.81,48.166c10.159,5.969,20.822,12.096,32.586,12.753
		c12.789,0.713,24.891-5.12,36.743-9.975c21.184-8.677,45.872-14.426,66.464-4.424c19.23,9.34,29.845,29.796,42.742,46.846
		c11.875,15.698,26.98,29.513,45.304,36.7c18.324,7.187,40.151,6.994,56.804-3.499c16.65-10.491,25.905-29.181,38.599-44.218
		c24.806-29.384,66.06-44.914,103.505-36.162c11.893,2.78,23.153,7.786,34.938,10.996c15.094,4.111,31,5.219,46.518,3.242
		c17.75-2.262,35.539-8.947,47.815-21.965c12.276-13.017,17.89-33.113,10.767-49.528c-3.808-8.776-10.766-15.835-15.036-24.396
		c-9.571-19.188-4.158-42.519,4.992-61.911C665.473,206.173,678.212,188.252,683.789,167.548z"/>
	<g>
		<path style="fill:#21343D;" d="M338.129,184.579c-2.286,14.647-5.521,18.871-10.009,20.814
			c-5.247,2.271-11.259,0.047-16.974,0.179c-10.178,0.235-19.382,9.218-19.865,19.387c-0.064,1.339,0.019,2.735,0.648,3.919
			c1.638,3.08,5.887,3.295,8.959,4.947c3.594,1.933,5.651,6.363,4.807,10.355c-1.235,5.841-7.821,10.571-6.22,16.323
			c1.071,3.85,5.375,5.749,9.278,6.609c2.203,0.485,4.59,0.788,6.646-0.139c2.023-0.913,4.459-2.435,6.312-3.656
			c7.465-4.92,14.185-3.175,22.326,0.907c20.94,10.5,29.647-10.353,30.924-12.407c3.186-5.124,20.792,3.75,29.75-3.875
			c1.429-1.217,13.5-8,0.734-24.194c-1.066-1.352-1.935-2.868-2.59-4.461c-1.96-4.769,1.94-9.917,2.022-15.073
			c0.058-3.594-1.754-6.936-3.707-9.954c-3.293-5.09-0.772-13.944-9.593-19.569c-4.708-3.002-8.311,0.442-15.554-6.686
			C366.776,158.906,340.668,168.314,338.129,184.579z"/>
		<g>
			<path style="fill:#F8916E;" d="M423.399,221.026c-10.59-7.778-17.635-18.681-26.482-30.972c-1.167-1.622-3.544-2.722-4.333-4.558
				c-1.518-3.529-0.11-6.06,0.896-9.768c2.095-7.722-2.563-5.328-2.563-7.722c0.833-2.772,8.043,0.997,8.833,4.913
				c0.79,3.916-1.759,7.557,0.39,10.925c7.777,7.223,20.629,16.431,28.944,24.39c9.288,8.891,14,15,12.5,20
				c-1.456,4.853-7,9.833-48.32,12.812c-1.389,0.1-2.927,0.285-4.025-0.571c-0.977-0.762-1.301-2.073-1.565-3.283
				c-0.698-3.206-2.157-12.963,1.115-13.231C403.751,222.734,417.418,224.452,423.399,221.026z"/>
			<g>
				<path style="fill:#EA8165;" d="M425.923,221.076c2.496-0.121,4.71,0.525,7.139,0.856c0.457,0.062,0.872-0.597,0.352-0.835
					c-2.284-1.049-5.133-0.886-7.56-0.527C425.567,220.612,425.635,221.09,425.923,221.076L425.923,221.076z"/>
			</g>
		</g>
		<g>
			<path style="fill:#F8916E;" d="M525.104,378.212c1.656,0.098,8.37-1.294,8.589-2.939c0.27-2.036-0.932-4.749-5.23-5.77
				c-4.592-0.594-8.339-2.19-11.097-3.152c-1.33-0.464-4.361-2.484-6.222-4.424c-2.006-2.092-11.873,3.952-8.526,6.815
				c3.354,2.869,4.074,5.498,6.147,7.171C513.569,379.79,517.116,377.739,525.104,378.212z"/>
			<path style="fill:#105F9A;" d="M507.422,374.514c0,0,9.532,1.954,14.802,1.078c0,0-0.059-5.004,2.46-6.858
				c0,0,7.721,0.282,12.207,3.877c4.486,3.595-7.206,6.869-14.957,6.252c-7.751-0.618-9.444,0.502-11.565-0.305
				C507.825,377.591,507.422,374.514,507.422,374.514z"/>
			<path style="fill:#543677;" d="M457.751,304.568c-1.596-1.306-50.73-5.438-62.854-6.68c0,0-21.299-2.647-31.992-2.53
				c-14.548,40.428,16.256,39.378,20.942,39.21c17.504-0.628,70.424-4.705,71.508-4.333c0.808,0.277,5.941,7.248,6.563,7.833
				c12,11.282,27.543,19.798,40.701,30.675c3.514-1.015,6.732-3.627,8.526-6.815C497.871,341.485,476.615,320.002,457.751,304.568z"
				/>
			<path style="fill:#F8916E;" d="M463.547,469.412c1.624,0.795,8.96,2.217,9.871,0.655c1.128-1.933,1.058-5.167-2.833-8
				c-4.368-2.527-8.589-6.835-9.833-7.833c-1.197-0.961-3.341-4.33-4.397-7.063c-1.138-2.947-13.599-1.017-11.437,3.269
				c2.167,4.294,1.785,7.241,3.167,9.794C451.285,466.151,455.714,465.579,463.547,469.412z"/>
			<path style="fill:#543677;" d="M353.085,343.812c7.813,12.917,59.654,34.984,64.564,41.952
				c2.056,2.918,4.205,16.093,5.377,19.465c4.559,13.115,13.09,30.613,21.893,45.211c1.686,2.796,10.4-0.173,11.437-3.269
				c-6.437-25.103-10.355-51.691-17.585-75.154c-0.491-1.594-1.023-3.203-1.96-4.583c-1.283-1.889-37.916-32.768-48.02-43.533
				c-1.509-1.608-9.538-15.5-6.58-27.785c-8.892-0.301-30.783-0.945-31.461,1.756C347.07,312.523,344.969,330.395,353.085,343.812z"
				/>
			<path style="fill:#105F9A;" d="M447.321,458.263c0,0,8.763,5.972,14.43,7.305c0,0,2.044-5.057,5.355-5.862
				c0,0,7.645,3.528,10.645,9.028s-10.133,3.879-17.667,0c-7.534-3.878-9.707-3.464-11.5-5.167
				C446.434,461.525,447.321,458.263,447.321,458.263z"/>
			<g>
				<path style="fill:#402960;" d="M382.794,310.48c-1.678,9.377,5.818,16.712,12.607,22.101c0.364,0.289,1.013-0.082,0.704-0.543
					c-4.902-7.316-13.849-10.859-12.395-21.306C383.791,310.142,382.903,309.87,382.794,310.48L382.794,310.48z"/>
			</g>
			<g>
				<path style="fill:#402960;" d="M354.262,302.422c8.216,1.339,16.522,1.869,24.844,1.582c4.629-0.16,11.138,0.078,15.365-2.2
					c0.633-0.341,0.171-1.202-0.461-1.092c-13.175,2.281-26.153,2.587-39.449,0.626
					C353.857,301.234,353.544,302.305,354.262,302.422L354.262,302.422z"/>
			</g>
			<g>
				<path style="fill:#402960;" d="M456.662,324.583c0.155-1.654-0.053-3.348-0.151-5.003c-0.078-1.306,0.085-2.712-0.572-3.87
					c-0.184-0.324-0.608-0.206-0.728,0.095c-0.533,1.341-0.092,3.024,0.015,4.442c0.113,1.489,0.152,3.006,0.493,4.464
					C455.849,325.272,456.614,325.093,456.662,324.583L456.662,324.583z"/>
			</g>
			<g>
				<path style="fill:#402960;" d="M458.549,325.903c0.145-1.371,0.488-2.674,1.02-3.946c0.43-1.029,1.238-1.944,1.504-3.013
					c0.087-0.35-0.308-0.703-0.637-0.49c-2.104,1.366-2.657,5.154-2.708,7.448C457.717,326.441,458.495,326.417,458.549,325.903
					L458.549,325.903z"/>
			</g>
			<g>
				<path style="fill:#402960;" d="M421.21,385.384c0.999-0.368,1.942-0.845,2.799-1.48c0.76-0.564,1.736-1.261,1.803-2.273
					c0.027-0.406-0.435-0.749-0.816-0.622c-0.819,0.274-1.286,1.141-1.892,1.722c-0.693,0.665-1.469,1.202-2.319,1.646
					C420.242,384.661,420.618,385.602,421.21,385.384L421.21,385.384z"/>
			</g>
			<g>
				<path style="fill:#402960;" d="M422.403,388.161c1.438,0.096,2.872,0.128,4.313,0.183c1.26,0.048,2.703,0.376,3.875-0.114
					c0.483-0.202,0.701-0.9,0.157-1.199c-1.203-0.662-2.694-0.429-4.032-0.348c-1.508,0.091-2.959,0.29-4.425,0.65
					C421.809,387.451,421.945,388.13,422.403,388.161L422.403,388.161z"/>
			</g>
		</g>
		<g>
			<path style="fill:#105F9A;" d="M401.505,256.018c-7.96,17.36-6.587,29.217-6.61,41.87c-12.41,1.85-31.61,0.64-44.15-0.01
				c-0.1-12.05-6.02-25.4-10.14-39.5c-0.92-3.15-1.75-6.09-2.4-8.69c-2.69-10.7,0.8-13.12-9.03-18.14c0,0,0.02-0.01,0.05-0.03
				c19.02-11.08,25.39-10.58,46.81-9.23c0.76,0.04,12.725,1.163,12.755,1.673C389.45,235.9,405.595,247.107,401.505,256.018z"/>
			<g>
				<path style="fill:#0E547F;" d="M357.59,263.483c7.693,2.15,19.395,2.065,23.8-6.138c0.165-0.306-0.188-0.743-0.513-0.513
					c-3.127,2.209-5.456,4.743-9.254,5.902c-4.559,1.392-9.187,0.84-13.721-0.381C357.172,262.156,356.864,263.28,357.59,263.483
					L357.59,263.483z"/>
			</g>
			<g>
				<path style="fill:#0E547F;" d="M386.066,257.967c1.144,1.836,2.701,3.257,4.689,4.133c1.369,0.604,4.321,1.703,5.453,0.265
					c0.212-0.269,0.276-0.648,0-0.911c-1.018-0.974-2.755-0.542-4.067-0.953c-1.871-0.587-3.506-1.779-4.658-3.362
					C386.875,256.303,385.497,257.052,386.066,257.967L386.066,257.967z"/>
			</g>
			<path style="fill:#EA8165;" d="M377.081,225.19l-22.547,0.977c0,0,4.622-12.171,1.772-23.138
				c-0.998-3.84,14.358-5.262,14.65-1.589C371.952,213.94,377.081,225.19,377.081,225.19z"/>
			<path style="fill:#EA8165;" d="M345.857,223.803c-1.332,0.41,12.548,22.852,32.683,20.254c9.79-1.264,3.516-18.724,2.696-21.133
				C373.707,222.023,359.117,219.723,345.857,223.803z"/>
			<g>
				<path style="fill:#D8705B;" d="M354.376,227.056c2.08,0.354,4.166,0.514,6.269,0.683c1.828,0.147,3.793,0.62,5.506-0.123
					c0.376-0.163,0.311-0.729,0-0.911c-1.499-0.88-3.365-0.66-5.069-0.727c-2.186-0.086-4.365-0.186-6.55-0.074
					C353.911,225.937,353.691,226.939,354.376,227.056L354.376,227.056z"/>
			</g>
			<g>
				<path style="fill:#D8705B;" d="M371.732,227.719c1.667-0.327,3.354-0.604,5.043-0.79c1.284-0.141,2.633,0.016,3.783-0.611
					c0.574-0.313,0.348-1.056-0.165-1.264c-1.265-0.513-2.845-0.057-4.166,0.155c-1.659,0.266-3.261,0.672-4.862,1.177
					C370.509,226.655,370.862,227.889,371.732,227.719L371.732,227.719z"/>
			</g>
		</g>
		<g>
			<path style="fill:#F8916E;" d="M303.085,271.901c-10.5,4.667-16.917,8.935-24.05,11.685c-2.857,1.102-9.104,3.793-12.117,4.481
				c-2.763,0.631-2.289-0.689-5.002-0.776c-3.259-0.104-6.42-0.854-9.331-2.557c-3.5,2.333,0.69,4.294,2.921,5.335
				c-0.754,0.831-8.318,1.608-13.587,3.165c-3.746,3.581,10.667,0,11.566,0.981c0.267,1.352-15.066,4.519-12.653,6.138
				c1.254,1.38,13.421-3.12,13.584-1.946c0.17,0.993-8.663,3.63-9.663,5.463c-1,3.008,8.243-1.615,11-2.303
				c0.798,0.667-3.199,2.423-4.89,3.819c-3.13,3.978,11.056-2.319,14.15-5.547c0.853-0.89,1.603-2.127,2.739-2.606
				c2.53-1.065,40.149-12.445,43.333-14.5c8.8-5.678,20.152-20.624,25.316-29.735c2.441-4.307,4.967-9.026,4.278-13.928
				c-0.608-4.32-7.009-10.053-11.502-7.521c-3.547,2-5.917,7.688-8.425,12.594C315.295,254.814,314.257,266.935,303.085,271.901z"/>
			<path style="fill:#F8916E;" d="M340.795,258.397c0,0-0.07,0-0.19-0.02c-0.92-3.15-1.75-6.09-2.4-8.69
				c-2.69-10.7,0.8-13.12-9.03-18.14c0,0,0.02-0.01,0.05-0.03c0.72-0.38,8.299-5.668,13.239,2.432
				C347.624,242.419,350.165,257.568,340.795,258.397z"/>
			<g>
				<path style="fill:#EA8165;" d="M339.406,248.777c1.497-1.406,3.053-3.849,2.973-5.986c-0.02-0.53-0.691-0.569-0.875-0.118
					c-0.417,1.02-0.56,2.096-1.061,3.102c-0.447,0.899-1.034,1.74-1.645,2.535C338.522,248.667,339.099,249.066,339.406,248.777
					L339.406,248.777z"/>
			</g>
			<g>
				<path style="fill:#EA8165;" d="M309.489,272.85c-0.16,1.001-0.119,1.996,0.229,2.958c0.264,0.73,0.889,2.155,1.855,2.057
					c0.992-0.101,0.575-1.139,0.22-1.652c-0.683-0.986-1.015-1.962-0.901-3.173C310.968,272.246,309.617,272.053,309.489,272.85
					L309.489,272.85z"/>
			</g>
			<g>
				<path style="fill:#EA8165;" d="M265.486,291.54c0.113,1.179,0.268,2.912,1.142,3.794c0.239,0.241,0.757,0.078,0.72-0.298
					c-0.059-0.612-0.374-1.14-0.571-1.718c-0.21-0.616-0.357-1.247-0.462-1.889C266.238,290.963,265.44,291.066,265.486,291.54
					L265.486,291.54z"/>
			</g>
		</g>
		<g>
			<path style="fill:#EA8165;" d="M381.261,199.536c0,0,0.206-3.466,0.62-4.816c0.237-0.773,0.579-1.522,1.147-1.997
				c0.568-0.475,1.401-0.625,2.093-0.195c0.41,0.255,0.729,0.68,0.999,1.12c2.044,3.335,1.429,8.136-1.285,10.023
				c-0.7,0.487-1.622,0.785-2.434,0.31C381.068,203.202,381.01,201.098,381.261,199.536z"/>
			<path style="fill:#F8916E;" d="M382.952,195.901c0,12.207-5.541,21.224-16.361,21.224c-10.82,0-18.197-10.008-18.197-22.215
				s7.377-21.991,18.197-21.991C377.411,172.919,382.952,183.694,382.952,195.901z"/>
			<path style="fill:#21343D;" d="M359.396,181.068c-1.388-3.264-8.978,2.333-7.532,9.667c0.686,3.48,1.77,4.46-0.61,7.09
				c-3.098,3.423-6.723,5.356-11.334,5.117c2.103-4.193,1.84-7.261,2.164-11.94c0.235-3.398,1.828-7.751,3.562-10.683
				c4.326-7.314,10.889-9.021,19.33-10c8.441-0.979,21.065,13.119,21.632,14.26c2.173,4.374,2.364,9.458,2.078,14.333
				c-0.025,0.433-0.059,0.881-0.268,1.261c-0.527,0.956-1.971,1.025-2.885,0.427c-0.914-0.598-1.726-1.535-1.908-2.612
				C380.918,181.901,363.5,190.721,359.396,181.068z"/>
			<path style="fill:#F8916E;" d="M351.882,201.687c0,0-1.465-3.147-2.347-4.251c-0.505-0.632-1.098-1.202-1.801-1.435
				c-0.703-0.233-1.533-0.066-2.018,0.588c-0.288,0.388-0.428,0.901-0.517,1.409c-0.675,3.853,1.663,8.092,4.88,8.849
				c0.831,0.195,1.797,0.134,2.377-0.606C353.409,205.025,352.689,203.047,351.882,201.687z"/>
			<path style="fill:#21343D;" d="M372.255,207.958c-1.05,2.21-2.93,3.37-4.68,3.37c-1.31,0-2.95-1.13-4.1-3.02
				c-0.01,0-0.01,0-0.01,0c-0.84-1.37-1.42-3.14-1.42-5.16c2.31-0.67,10.98-0.99,11.04,0
				C373.205,205.077,372.865,206.688,372.255,207.958z"/>
			<g>
				<path style="fill:#E07255;" d="M367.101,190.145c-0.228,1.469,0.036,2.921,0.933,4.138c0.414,0.563,1.257,0.912,1.617,1.431
					c0.43,0.62-1.257,1.652-1.562,2.334c-0.145,0.324,0.092,0.631,0.441,0.574c1.047-0.171,3.121-1.98,2.519-3.234
					c-0.302-0.629-1.454-0.974-1.93-1.477c-0.947-1.002-1.335-2.302-1.219-3.658C367.938,189.802,367.172,189.691,367.101,190.145
					L367.101,190.145z"/>
			</g>
			<g>
				<path style="fill:#21343D;" d="M359.366,192.999c0.778-1.264,2.332-1.483,3.554-0.744c1.071,0.648,2.078-1.111,0.974-1.666
					c-1.946-0.977-4.541-0.151-5.473,1.857C358.13,193.076,358.991,193.609,359.366,192.999L359.366,192.999z"/>
			</g>
			<g>
				<path style="fill:#21343D;" d="M371.935,191.175c0.957-0.231,1.69-0.655,2.724-0.449c0.852,0.169,1.429,0.726,2.299,0.808
					c0.351,0.033,0.55-0.349,0.49-0.643c-0.469-2.281-4.942-2.042-5.963-0.301C371.305,190.897,371.602,191.256,371.935,191.175
					L371.935,191.175z"/>
			</g>
			<g>
				<path style="fill:#21343D;" d="M356.38,187.318c0.458-0.835,1.119-1.454,1.97-1.882c0.815-0.41,1.614-0.365,2.474-0.551
					c0.307-0.066,0.24-0.462,0-0.558c-1.907-0.759-4.14,1.132-4.835,2.762C355.878,187.35,356.236,187.581,356.38,187.318
					L356.38,187.318z"/>
			</g>
			<g>
				<path style="fill:#E07255;" d="M349.155,199.613c-0.586-1.499-2.642-2.863-3.214-0.556c-0.365,1.47,0.007,2.963,0.808,4.219
					c0.639,1.002,1.744,2.263,3.057,2.044c0.348-0.058,0.29-0.556,0-0.648c-1.846-0.585-3.149-2.563-3.152-4.486
					c-0.001-0.556-0.005-1.865,0.833-1.579c0.498,0.17,0.945,0.779,1.197,1.205C348.827,200.054,349.264,199.894,349.155,199.613
					L349.155,199.613z"/>
			</g>
			<path style="fill:#EF6856;" d="M359.835,199.307c0,1.168-1.214,2.115-2.711,2.115s-2.711-0.947-2.711-2.115
				c0-1.168,1.214-2.114,2.711-2.114S359.835,198.139,359.835,199.307z"/>
			<ellipse style="fill:#EF6856;" cx="378.666" cy="197.193" rx="2.711" ry="2.114"/>
			<path style="fill:#E54866;" d="M372.255,207.958c-1.05,2.21-2.93,3.37-4.68,3.37c-1.31,0-2.95-1.13-4.1-3.02
				C365.505,206.977,368.725,205.788,372.255,207.958z"/>
			<g>
				<g>
					<path style="fill:#2C454F;" d="M361.956,176.095c2.57,3.304,5.557,5.235,9.689,5.932c6.944,1.172,10.86,2.852,15.477,8.237
						c0.262,0.306,0.685-0.083,0.528-0.407c-1.683-3.46-4.978-6.073-8.476-7.585c-1.651-0.714-3.341-1.058-5.1-1.341
						c-4.942-0.794-7.894-1.917-11.333-5.621C362.242,174.773,361.531,175.548,361.956,176.095L361.956,176.095z"/>
				</g>
				<g>
					<path style="fill:#2C454F;" d="M363.826,169.846c1.6,2.458,3.731,4.309,6.583,5.135c4.728,1.368,9.448,0.428,12.807,4.774
						c0.222,0.287,0.742-0.025,0.614-0.357c-0.958-2.484-3.241-3.677-5.762-4.258c-5.327-1.227-10.146-0.607-13.742-5.586
						C364.111,169.258,363.62,169.529,363.826,169.846L363.826,169.846z"/>
				</g>
				<g>
					<path style="fill:#2C454F;" d="M342.335,187.22c-2.666,4.237-2.927,9.022-4.247,13.737
						c-2.323,8.292-9.735,10.165-17.218,11.973c-0.547,0.132-0.432,0.994,0.133,0.982c5.446-0.115,12.277-2.621,15.674-7.142
						c4.147-5.52,2.986-13.253,6.172-19.25C343.027,187.182,342.539,186.896,342.335,187.22L342.335,187.22z"/>
				</g>
				<g>
					<path style="fill:#2C454F;" d="M341.127,208.03c-1.125,2.667-3.081,4.773-5.614,6.172c-2.211,1.221-4.501,1.407-6.944,1.754
						c-0.327,0.047-0.283,0.541,0,0.618c5.638,1.537,11.368-3.403,13.176-8.374C341.888,207.805,341.282,207.661,341.127,208.03
						L341.127,208.03z"/>
				</g>
				<g>
					<path style="fill:#2C454F;" d="M345.632,215.301c-0.352,1.556-1.146,2.886-2.348,3.94c-1.145,1.003-2.527,1.375-3.827,2.088
						c-0.29,0.159-0.252,0.678,0.097,0.743c3.534,0.65,6.525-3.442,6.997-6.517C346.642,214.964,345.77,214.69,345.632,215.301
						L345.632,215.301z"/>
				</g>
				<g>
					<path style="fill:#2C454F;" d="M392.547,195.58c4.618,4.215,3.572,8.673,2.002,13.972c-0.664,2.24-0.92,4.424,0.661,6.267
						c0.259,0.302,0.788-0.019,0.666-0.388c-1.56-4.72,1.581-8.358,1.154-13.002c-0.273-2.967-1.721-5.458-3.919-7.413
						C392.729,194.677,392.166,195.232,392.547,195.58L392.547,195.58z"/>
				</g>
				<g>
					<path style="fill:#2C454F;" d="M389.867,206.618c-0.702,2.387-1.356,5.546-0.54,7.969c0.212,0.629,1.114,0.514,1.151-0.156
						c0.065-1.187-0.169-2.386-0.133-3.585c0.04-1.338,0.252-2.641,0.577-3.937C391.093,206.225,390.066,205.942,389.867,206.618
						L389.867,206.618z"/>
				</g>
				<g>
					<path style="fill:#2C454F;" d="M384.128,211.93c-0.442,1.715-0.866,4.118,0.048,5.737c0.245,0.434,0.809,0.189,0.859-0.233
						c0.098-0.825-0.101-1.657-0.099-2.487c0.003-0.918,0.133-1.807,0.353-2.697C385.474,211.499,384.322,211.179,384.128,211.93
						L384.128,211.93z"/>
				</g>
				<g>
					<path style="fill:#2C454F;" d="M312.719,214.444c-3.889-0.507-8.78,1.452-11.175,4.565c-1.987,2.583-2.926,7.306-0.097,9.637
						c0.242,0.199,0.722,0.021,0.588-0.342c-1.279-3.462-1.277-6.783,1.639-9.479c2.645-2.446,5.938-2.482,9.182-3.369
						C313.461,215.291,313.262,214.514,312.719,214.444L312.719,214.444z"/>
				</g>
				<g>
					<path style="fill:#2C454F;" d="M311.131,222.794c-1.788,1.493-3.48,3.357-3.785,5.765c-0.217,1.715,0.268,3.777,1.989,4.488
						c0.36,0.149,0.574-0.311,0.45-0.585c-0.681-1.507-1.351-2.749-0.961-4.472c0.411-1.818,1.729-3.224,3.058-4.445
						C312.392,223.077,311.648,222.362,311.131,222.794L311.131,222.794z"/>
				</g>
				<g>
					<path style="fill:#2C454F;" d="M315.043,239.315c-0.667-3.925,1.025-7.111,3.726-9.819c0.156-0.157-0.043-0.419-0.237-0.307
						c-3.49,2.028-4.797,6.497-4.107,10.296C314.499,239.892,315.112,239.718,315.043,239.315L315.043,239.315z"/>
				</g>
				<g>
					<path style="fill:#2C454F;" d="M309.063,259.465c-0.741,0.584-1.607-2.683-1.624-2.968c-0.055-0.927,0.165-1.766,0.522-2.605
						c0.705-1.655,2.008-2.843,3.001-4.305c0.241-0.354-0.265-0.66-0.552-0.426c-2.275,1.854-4.351,4.956-3.891,8.016
						c0.148,0.987,2.019,4.745,3.195,2.789C309.973,259.535,309.41,259.191,309.063,259.465L309.063,259.465z"/>
				</g>
				<g>
					<path style="fill:#2C454F;" d="M345.492,180.512c1.434-2.819,3.507-5.199,6.103-7.007c0.411-0.286,0.014-0.967-0.394-0.675
						c-2.686,1.928-4.758,4.422-6.154,7.421C344.909,180.548,345.34,180.811,345.492,180.512L345.492,180.512z"/>
				</g>
				<g>
					<path style="fill:#2C454F;" d="M349.538,182.196c0.767-1.163,1.656-2.212,2.682-3.155c0.951-0.873,2.076-1.519,3.03-2.377
						c0.244-0.219-0.011-0.674-0.327-0.561c-2.537,0.903-4.579,3.555-5.884,5.801C348.85,182.229,349.335,182.505,349.538,182.196
						L349.538,182.196z"/>
				</g>
			</g>
		</g>
	</g>
	<g>
		<path style="fill:#543677;" d="M129.761,154.73c0.597-2.334,1.769-4.767,0.953-7.034c-0.532-1.48-1.818-2.544-3.096-3.461
			c-7.331-5.261-16.117-8.132-23.697-13.026c-5.012-3.236-9.458-7.345-13.079-12.086c-6.161-8.069-9.293-20.818-1.734-27.595
			c4.412-3.956,10.957-4.353,16.841-3.653c5.884,0.7,11.776,2.285,17.651,1.513c2.787-1.84-0.949-5.633-2.249-8.709
			c-1.408-3.33,0.824-7.343,4.044-8.987c3.22-1.644,7.062-1.447,10.62-0.805c7.906,1.427,15.896,5.303,19.773,12.34
			c3.867,7.02,3.237,16.329,8.719,22.176c5.143,5.485,13.543,5.76,20.953,7.041c7.409,1.281,15.903,5.646,16.04,13.164
			c0.121,6.617-6.592,12.624-4.569,18.926c1.569,4.891,7.672,7.005,9.762,11.697c2.139,4.804-0.642,10.256-3.345,14.767
			c-2.495,4.163-4.989,8.326-7.484,12.489c-1.225,2.044-2.514,4.157-4.501,5.472c-7.195,4.76-13.319-2.952-20.272-2.867
			c-7.241,0.089-9.41,5.375-16.569,0.97C144.338,180.797,126.143,168.889,129.761,154.73z"/>
		<g>
			<path style="fill:#114754;" d="M213.426,295.183c2.011,1.455,5.87,6.5,6.071,12.226c0.756,21.489,0.714,32.995,0.756,55.049
				c-3.652,0.26-9.868,4.663-14.222,0.086c-4.62-18.91-10.858-29.288-10.607-48.962c-43.348-18.982-57.658-33.781-56.951-38.23
				c0.892-5.617,2.537-11.114,4.879-16.296c0.824-1.823,1.767-3.653,3.259-4.986c2.872-2.566,7.278-2.755,10.909-1.47
				c5.097,1.803,7.606,5.542,11.461,8.839C174.62,266.261,198.677,284.508,213.426,295.183z"/>
			<path style="fill:#114754;" d="M141.573,326.647c-0.524,1.258-7.375,3.625-14.625,8.995
				c-14.916,11.049-15.625,14.13-26.203,25.307c1.806,3.538,5.992,8.356,7.798,11.894c20.726-13.358,35.781-17.696,56.21-32.106
				c5.57-9.09-3.862-32.289-10.296-50.711c-0.581-1.663-1.198-3.361-1.183-5.123c0.017-1.863,0.739-3.638,1.451-5.36
				c3.342-8.089,6.685-16.178,10.028-24.267c-7.433-4.862-16.738-5.476-25.497-6.947c-9.091-2.273-16.678-4.245-22.786-11.813
				c-9.436,11.14-15.973,20.189-9.803,34.663C113.65,287.565,142.79,323.728,141.573,326.647z"/>
			<g>
				<path style="fill:#0D3A42;" d="M150.711,271.454c-0.841,5.201-0.491,12.741,2.661,17.192c0.403,0.569,1.198,0.212,1.092-0.46
					c-0.411-2.618-1.543-5.1-2.004-7.736c-0.508-2.911-0.614-5.864-0.323-8.802C152.218,270.841,150.842,270.645,150.711,271.454
					L150.711,271.454z"/>
			</g>
			<g>
				<path style="fill:#F8916E;" d="M78.247,391.712c-0.143,1.653,1.065,8.403,2.703,8.666c2.028,0.326,4.772-0.803,5.911-5.071
					c0.719-4.574,2.416-8.276,3.453-11.007c0.5-1.317,16.237-9.65,18.228-11.457c2.146-1.948-4.844-15.162-7.798-11.894
					c-2.053,2.271-7.801,8.294-13.012,11.894c-2.301,1.589-6.611,1.223-7.141,1.844C76.586,379.384,78.938,383.74,78.247,391.712z"
					/>
				<path style="fill:#F14052;" d="M82.425,374.137c0,0-1.977,3.885-1.481,14.767c0,0,5.004,0.077,6.788,2.645
					c0,0-0.492,7.71-4.208,12.097c-3.716,4.387-6.671-7.39-5.842-15.122c0.828-7.731-0.245-9.454,0.619-11.552
					C79.339,374.457,82.425,374.137,82.425,374.137z"/>
			</g>
			<g>
				<path style="fill:#F8916E;" d="M219.639,398.144c1.31,1.018,7.633,3.67,8.744,2.437c1.375-1.525,1.918-4.443-1.047-7.717
					c-3.45-3.089-5.636-6.524-7.366-8.879c-0.834-1.135,0.719-18.875,0.283-21.527c-0.47-2.86-15.361-4.169-14.222,0.086
					c0.792,2.957,2.726,11.055,2.917,17.386c0.084,2.796-2.564,6.215-2.33,6.997C208.385,392.841,213.32,393.233,219.639,398.144z"
					/>
				<path style="fill:#F14052;" d="M207.152,385.089c0,0,2.188,3.771,11.594,9.265c0,0,2.783-4.159,5.908-4.262
					c0,0,6.206,4.601,7.871,10.104c1.665,5.503-9.828,1.586-15.87-3.309c-6.041-4.895-8.071-4.93-9.362-6.795
					C205.744,387.853,207.152,385.089,207.152,385.089z"/>
			</g>
		</g>
		<g>
			<path style="fill:#F8916E;" d="M104.294,154.314c-13.191-8.916-30.205-11.664-40.24-17.872c0,0-3.437-4.521-5.998-6.215
				c-3.645-2.41-7.504-6.637-8.5-6.499c-1.483,2.169,5.333,6.499,4.364,7.368c-1.031,0.781-8.913-5.012-14.022-7.884
				c-4.811,1.749,10.288,9.522,9.158,10.182c-0.87,1.357-10.833-3.168-13.756-3.359c-3.577,2.495,12.524,6.191,12.435,7.326
				c-0.744,2.198-11.346-1.996-13.576-0.791c-2.192,2.232,6.578,2.909,12.54,4.701c2.024,0.608,2.898,2.307,4.025,2.942
				c-2.66,1.709-6.331,1.934-4.998,5.267c2.292-0.319,4.684,0.061,8.913-1.614c1.736-0.688,3.598-2.055,5.418-1.639
				c7.659,1.749,24.618,12.575,33.223,17.811c7.801,4.746,18.183,22.321,26.11,26.855c3.251,1.86,5.369-0.681,9.087-1.14
				c10.352-1.278,9.605-9.811,4.097-13.857C125.105,170.411,112.123,159.606,104.294,154.314z"/>
			<g>
				<path style="fill:#EA8165;" d="M97.466,163.981c0.01-0.821,0.021-1.641,0.031-2.462c0.009-0.709,0.156-1.386-0.368-1.928
					c-0.205-0.211-0.574-0.212-0.779,0c-0.525,0.542-0.377,1.219-0.368,1.928c0.01,0.82,0.021,1.641,0.031,2.462
					C96.025,164.916,97.454,164.917,97.466,163.981L97.466,163.981z"/>
			</g>
		</g>
		<g>
			<path style="fill:#F8916E;" d="M227.406,171.679c15.317-4.346,29.949-0.887,41.422-3.647c0,0,4.678-3.22,7.64-4.029
				c4.216-1.15,9.203-3.959,10.105-3.516c0.999,3.043-7.098,4.506-6.449,5.635c0.735,1.064,10.033-1.974,15.784-3.106
				c4.023,3.166-12.749,5.829-11.882,6.809c0.403,1.561,11.281,0.377,14.117,1.11c2.618,3.488-13.832,1.966-14.102,3.072
				c0.02,2.321,11.401,1.651,13.143,3.492c1.368,2.773-6.922,1.195-13.112,1.022c-2.2-0.061-3.699,0.8-5.011,1.059
				c1.992,2.454,5.409,3.816,3.101,6.566c-2.078-1.02-4.468-1.406-7.961-4.32c-1.434-1.196-2.775-3.076-4.634-3.251
				c-7.822-0.733-27.315,4.25-37.126,6.533c-8.894,2.07-24.249,15.518-33.196,17.347c-3.67,0.75-4.887-2.325-8.275-3.924
				c-9.434-4.45-3.993-10.951,3.343-13.794C202.236,181.669,218.315,174.258,227.406,171.679z"/>
			<g>
				<path style="fill:#EA8165;" d="M231.994,182.813c0.092-0.68,0.183-1.359,0.275-2.039c0.082-0.609,0.204-1.117-0.083-1.684
					c-0.127-0.251-0.532-0.308-0.718-0.092c-0.413,0.478-0.424,0.993-0.491,1.602c-0.075,0.682-0.15,1.364-0.225,2.046
					C230.674,183.347,231.899,183.52,231.994,182.813L231.994,182.813z"/>
			</g>
		</g>
		<g>
			<path style="fill:#F14052;" d="M122.92,168.524c-11.657,4.225-11.918,8.973-14.937,16.081
				c-7.239,17.044,3.992,19.734,12.035,20.703c-8.098,5.639-8.507,21.717-13.247,30.372c-1.483,2.708-2.804,5.719-2.406,8.781
				c0.66,5.07,5.596,8.296,10.04,10.824c9.06,5.153,18.367,10.395,28.654,12.075c10.287,1.68,26.195-1.022,32.643-9.212
				c3.472-4.41-1.575-11.112,0-16.5c1.392-4.764,13.624-13.75,11.18-23.886c-0.696-2.885,10.889-1.66,13.718-2.558
				c14.028-4.453,14.225-18.656,7.527-31.763c-4.305-9.274-17.281-4.119-26.074-1.881c-11.777,2.998-18.271,1.028-29.302-1.639
				C140.58,176.978,134.499,164.327,122.92,168.524z"/>
			<path style="fill:#EA8165;" d="M150.74,183.314c-4.677,2.167-4.401,10.148-1.333,11.5c5.67,2.5,7.644,8.969,10.614,9.667
				c3.432,0.806,7.613-4.076,11.129-4.333c9.104-0.667,7.641-6.263,7.449-7.5c-0.742-4.781-6.172-4.033-5.764-8.05
				c0.285-2.806,2.323-5.18,2.722-7.972c0.483-3.379-1.884-6.936-5.193-7.775c-6.704-1.7-8.347,0.5-10.343,4.147
				C157.167,178.213,156.743,181.677,150.74,183.314z"/>
			<g>
				<path style="fill:#DB374F;" d="M133.7,211.476c1.244,7.505,12.018,13.516,18.74,8.78c0.643-0.453,0.098-1.344-0.607-1.039
					c-6.598,2.855-15.488-0.755-17.123-8.019C134.559,210.531,133.592,210.824,133.7,211.476L133.7,211.476z"/>
			</g>
			<g>
				<path style="fill:#DB374F;" d="M161.633,220.91c4.009,5.774,12.344,8.184,18.163,3.474c0.478-0.387-0.131-1.024-0.615-0.798
					c-6.097,2.855-12.452,2.586-16.792-3.118C162.056,220.031,161.306,220.439,161.633,220.91L161.633,220.91z"/>
			</g>
			<g>
				<path style="fill:#D8705B;" d="M154.168,189.059c1.452,0.938,2.903,1.876,4.355,2.815c1.298,0.839,2.569,1.811,4.023,2.355
					c0.481,0.18,0.839-0.511,0.49-0.842c-1.124-1.068-2.568-1.783-3.889-2.581c-1.478-0.893-2.956-1.785-4.435-2.678
					C154.115,187.767,153.588,188.684,154.168,189.059L154.168,189.059z"/>
			</g>
			<g>
				<path style="fill:#D8705B;" d="M166.745,195.652c1.505-0.131,3.009-0.262,4.514-0.393c1.157-0.101,2.313-0.035,3.202-0.847
					c0.247-0.226,0.193-0.693-0.109-0.847c-1.076-0.549-2.172-0.182-3.319,0.028c-1.485,0.272-2.971,0.544-4.456,0.816
					C165.882,194.536,166.033,195.714,166.745,195.652L166.745,195.652z"/>
			</g>
			<g>
				<path style="fill:#DB374F;" d="M124.046,203.146c1.403-2.352,4.657-2.163,6.667-3.782c1.572-1.266,2.703-3.454,2.299-5.486
					c-0.066-0.331-0.618-0.34-0.678,0c-0.56,3.193-1.684,4.981-4.769,6.234c-1.575,0.639-3.125,1.194-3.977,2.766
					C123.424,203.178,123.87,203.441,124.046,203.146L124.046,203.146z"/>
			</g>
			<g>
				<path style="fill:#DB374F;" d="M126.691,234.693c11.416,9.972,25.31-0.47,37.977,2.93c0.382,0.103,0.652-0.472,0.277-0.657
					c-4.416-2.174-9.601-0.713-14.196,0.189c-8.153,1.599-16.879,3.025-23.869-2.649
					C126.748,234.399,126.561,234.579,126.691,234.693L126.691,234.693z"/>
			</g>
			<g>
				<path style="fill:#DB374F;" d="M138.827,245.994c9.247-2.627,16.641,3.141,25.116,5.541c0.485,0.137,0.652-0.562,0.204-0.738
					c-8.065-3.173-16.591-8.159-25.415-5.149C138.514,245.722,138.602,246.058,138.827,245.994L138.827,245.994z"/>
			</g>
			<g>
				<path style="fill:#DB374F;" d="M186.659,211.987c-0.192-5.309,3.494-9.14,5.092-13.926c0.89-2.668,1.347-5.94-1.152-7.76
					c-0.287-0.209-0.601,0.237-0.369,0.479c2.389,2.494,1.124,6.469-0.096,9.122c-0.745,1.621-1.658,3.159-2.418,4.773
					c-1.117,2.371-1.832,4.671-1.697,7.312C186.039,212.397,186.674,212.401,186.659,211.987L186.659,211.987z"/>
			</g>
			<g>
				<path style="fill:#DB374F;" d="M191.184,211.008c0.804-2.214,2.11-4.171,3.845-5.768c1.648-1.516,3.608-2.263,5.512-3.361
					c0.219-0.126,0.135-0.513-0.134-0.495c-4.749,0.321-8.51,5.264-9.735,9.482C190.575,211.199,191.069,211.325,191.184,211.008
					L191.184,211.008z"/>
			</g>
			<g>
				<path style="fill:#DB374F;" d="M120.652,202.054c2.052-5.817,2.85-13.057,0.294-18.86c-0.116-0.262-0.466-0.059-0.428,0.181
					c1.045,6.55,1.734,12.078-0.212,18.583C120.239,202.182,120.576,202.27,120.652,202.054L120.652,202.054z"/>
			</g>
			<g>
				<path style="fill:#DB374F;" d="M147.942,182.146c-5.266,2.741-6.789,11.015-2.211,15.178c1.469,1.336,3.465,2.01,4.91,3.376
					c1.938,1.833,2.889,4.598,4.683,6.611c1.692,1.899,3.288,3.668,5.785,2.467c0.303-0.146,0.038-0.574-0.26-0.445
					c-1.459,0.632-4.104-1.501-5.12-2.426c-1.291-1.175-1.965-2.836-2.851-4.28c-0.853-1.391-1.295-2.245-2.598-3.324
					c-1.682-1.394-3.008-1.958-4.416-3.778c-2.998-3.876-2-10.123,2.456-12.732C148.739,182.549,148.369,181.924,147.942,182.146
					L147.942,182.146z"/>
			</g>
			<g>
				<path style="fill:#DB374F;" d="M166.945,208.306c2.584-5.532,8.591-4.271,13.143-7.056c2.958-1.81,2.666-5.426,2.352-8.604
					c-0.048-0.49-0.782-0.513-0.781,0c0.004,2.538,0.544,5.994-1.695,7.706c-2.188,1.673-4.723,1.937-7.278,2.506
					c-2.989,0.666-5.053,2.413-6.125,5.285C166.477,208.365,166.844,208.522,166.945,208.306L166.945,208.306z"/>
			</g>
		</g>
		<g>
			<path style="fill:#F8916E;" d="M171.519,187.288c2.358,0.727,4.917,1.039,7.289,0.362c3.11-0.889,5.556-3.398,7.07-6.256
				c1.515-2.857,6.074-15.622,3.352-25.221c-3.411-12.03-23.709-19.651-30.877-5.595
				C151.912,163.207,158.478,183.266,171.519,187.288z"/>
			<path style="fill:#EF6856;" d="M170.044,169.862c0,1.168-1.214,2.115-2.711,2.115c-1.498,0-2.711-0.947-2.711-2.115
				c0-1.168,1.214-2.114,2.711-2.114C168.83,167.747,170.044,168.694,170.044,169.862z"/>
			<ellipse style="fill:#EF6856;" cx="185.127" cy="170.405" rx="2.711" ry="2.114"/>
			<path style="fill:#543677;" d="M160.938,154.482c10.212-12.14,25.135-9.335,33.635,7.165c1.547-4.276,0.768-10.96-2.016-14.555
				c-5.551-7.168-12.129-14.08-20.701-17.031c-8.572-2.951-19.505-0.71-24.056,7.131c-3.284,5.658-2.638,12.679-1.891,19.178
				c0.24,2.09,0.48,4.179,0.72,6.269c0.495,4.313,2.046,11.313,7.837,9.367C161.671,169.586,160.466,155.044,160.938,154.482z"/>
			<path style="fill:#F8916E;" d="M158.92,161.699c-1.514-1.197-3.147-2.218-4.647,0.282c-2.528,6.333,0.619,10.36,2.189,10.361
				C161.008,172.342,160.434,162.896,158.92,161.699z"/>
			<g>
				<path style="fill:#E07255;" d="M156.945,162.353c-0.716-0.215-1.322,0.55-1.678,1.07c-0.823,1.204-0.644,2.294-0.607,3.716
					c0.03,1.151-0.087,2.199,0.758,3.086c0.66,0.693,1.542,0.871,2.264,0.199c0.282-0.262-0.01-0.773-0.38-0.653
					c-1.996,0.647-1.685-2.355-1.716-3.433c-0.019-0.664-0.103-1.268,0.165-1.886c0.104-0.241,0.739-1.401,0.991-1.361
					C157.218,163.168,157.428,162.498,156.945,162.353L156.945,162.353z"/>
			</g>
			<g>
				<path style="fill:#E07255;" d="M176.536,163.68c-0.028,1.771,0.109,3.694,1.455,5.011c0.264,0.258,1.678,0.808,1.717,0.92
					c0.019,0.055-1.927,1.522-2.115,1.88c-0.146,0.279,0.097,0.649,0.424,0.551c0.873-0.262,2.921-1.748,2.517-2.885
					c-0.258-0.725-1.27-0.798-1.772-1.236c-1.163-1.016-1.255-2.823-1.414-4.239C177.291,163.172,176.544,163.144,176.536,163.68
					L176.536,163.68z"/>
			</g>
			<path style="fill:#543677;" d="M180.253,174.527c0,0-0.47,2.41-1.45,4.56c-0.88,1.91-2.17,3.62-3.9,3.23
				c-1.32-0.3-1.98-1.59-2.3-3.11c-0.56-2.72-0.01-6.21-0.01-6.21S176.943,175.577,180.253,174.527z"/>
			<path style="fill:#543677;" d="M171.149,163.53c0,1.04-0.689,1.883-1.538,1.883c-0.85,0-1.538-0.843-1.538-1.883
				c0-1.04,0.689-1.883,1.538-1.883C170.461,161.648,171.149,162.49,171.149,163.53z"/>
			<ellipse style="fill:#543677;" cx="183.291" cy="164.508" rx="1.538" ry="1.883"/>
			<g>
				<path style="fill:#543677;" d="M166.186,158.098c0.693-0.893,1.612-1.505,2.718-1.764c1.053-0.246,1.986,0.04,3.03,0.127
					c0.312,0.026,0.512-0.438,0.265-0.64c-2.065-1.694-5.356-0.128-6.664,1.775C165.272,157.979,165.896,158.471,166.186,158.098
					L166.186,158.098z"/>
			</g>
			<g>
				<path style="fill:#543677;" d="M181.973,157.49c0.909-0.273,1.953-0.538,2.892-0.276c0.749,0.209,1.146,0.793,1.774,1.186
					c0.203,0.127,0.45-0.04,0.458-0.263c0.036-0.998-0.974-1.597-1.836-1.834c-1.247-0.342-2.431,0.029-3.523,0.63
					C181.438,157.099,181.641,157.59,181.973,157.49L181.973,157.49z"/>
			</g>
			<path style="fill:#E54866;" d="M178.803,179.087c-0.88,1.91-2.17,3.62-3.9,3.23c-1.32-0.3-1.98-1.59-2.3-3.11
				C174.013,177.717,176.313,176.348,178.803,179.087z"/>
			<g>
				<path style="fill:#61428E;" d="M142.5,164.784c-9.965-4.911-3.748-18.241-7.453-26.439c-1.617-3.579-4.727-6.36-7.518-9.009
					c-3.683-3.495-7.472-7.07-11.761-9.809c-0.294-0.188-0.58,0.224-0.36,0.466c3.828,4.2,8.494,7.615,12.556,11.594
					c5.02,4.918,7.249,9.482,7.231,16.54c-0.016,6.508-0.141,14.455,6.769,17.573C142.577,165.978,143.12,165.09,142.5,164.784
					L142.5,164.784z"/>
			</g>
			<g>
				<path style="fill:#61428E;" d="M123.255,135.52c-7.308-2.889-14.195-6.49-19.559-12.379c-5.913-6.492-8.239-13.972-9.198-22.527
					c-0.048-0.429-0.628-0.434-0.672,0c-1.729,17.092,14.057,31.499,29.188,35.781C123.589,136.557,123.785,135.73,123.255,135.52
					L123.255,135.52z"/>
			</g>
			<g>
				<path style="fill:#61428E;" d="M102.079,103.132c-1.211,6.328,3.816,14.709,8.648,18.522c0.332,0.262,0.877-0.064,0.626-0.483
					c-3.415-5.701-8.669-10.701-8.245-17.9C103.142,102.689,102.191,102.549,102.079,103.132L102.079,103.132z"/>
			</g>
			<g>
				<path style="fill:#61428E;" d="M147.591,86.489c4.402,5.187,3.833,12.984,7.758,18.634c4.298,6.187,11.01,9.401,18.238,10.848
					c0.356,0.071,0.611-0.422,0.259-0.614c-3.49-1.901-7.52-2.338-10.949-4.473c-4.318-2.688-7.686-6.924-9.477-11.658
					c-1.719-4.542-1.926-9.469-5.452-13.114C147.725,85.865,147.372,86.232,147.591,86.489L147.591,86.489z"/>
			</g>
			<g>
				<path style="fill:#61428E;" d="M138.364,90.085c2.836,9.234,8.918,19.414,17.734,24.066c0.392,0.207,0.848-0.315,0.492-0.638
					c-3.581-3.257-7.24-6.013-10.225-9.896c-3.196-4.158-5.602-8.764-7.293-13.727C138.921,89.447,138.224,89.629,138.364,90.085
					L138.364,90.085z"/>
			</g>
			<g>
				<path style="fill:#61428E;" d="M118.365,100.305c-1.27,5.653,0.671,11.272,5.619,14.492c3.54,2.303,7.905,2.861,11.527,4.988
					c5.402,3.171,7.173,8.508,6.964,14.476c-0.014,0.394,0.598,0.48,0.691,0.093c1.313-5.501-1.156-11.351-5.732-14.622
					c-2.65-1.895-5.829-2.702-8.812-3.888c-6.695-2.662-10.998-7.879-9.685-15.381C119.003,100.092,118.45,99.927,118.365,100.305
					L118.365,100.305z"/>
			</g>
			<g>
				<path style="fill:#61428E;" d="M125.672,96.963c0.301,4.641,2.06,8.905,5.623,12.005c5.671,4.934,13.946,4.743,16.809,12.799
					c0.167,0.471,0.815,0.279,0.738-0.203c-0.698-4.382-4.323-6.851-8.078-8.681c-7.307-3.561-13.456-6.9-14.248-15.92
					C126.468,96.429,125.636,96.417,125.672,96.963L125.672,96.963z"/>
			</g>
			<g>
				<path style="fill:#61428E;" d="M183.061,118.241c3.945,0.237,8.928,1.128,10.434,5.373c1.682,4.74-1.626,8.432-3.777,12.29
					c-0.177,0.317,0.256,0.68,0.515,0.398c3.03-3.295,5.859-8.525,4.078-13.083c-1.757-4.497-6.983-5.383-11.25-5.493
					C182.727,117.716,182.732,118.221,183.061,118.241L183.061,118.241z"/>
			</g>
			<g>
				<path style="fill:#61428E;" d="M182.656,122.951c1.807,0.575,3.259,1.771,3.974,3.551c0.754,1.879,0.33,3.524-0.209,5.372
					c-0.069,0.238,0.276,0.476,0.444,0.258c2.843-3.671-0.068-8.685-4.026-9.844C182.412,122.163,182.235,122.817,182.656,122.951
					L182.656,122.951z"/>
			</g>
			<g>
				<path style="fill:#61428E;" d="M156.931,155.162c-4.535-4.23-6.647-8.628-6.868-14.846c-0.013-0.379-0.54-0.364-0.578,0
					c-0.601,5.696,2.255,12.206,6.878,15.582C156.795,156.214,157.316,155.521,156.931,155.162L156.931,155.162z"/>
			</g>
			<g>
				<path style="fill:#61428E;" d="M161.627,147.427c-4.839-4.941-1.38-9.303-2.041-14.904c-0.363-3.073-1.923-5.79-4.334-7.684
					c-0.338-0.266-0.812,0.168-0.486,0.486c2.188,2.133,3.591,4.263,4.022,7.305c0.348,2.453-0.491,4.618-0.688,7.007
					c-0.266,3.233,0.938,5.858,3.229,8.088C161.524,147.915,161.818,147.622,161.627,147.427L161.627,147.427z"/>
			</g>
			<g>
				<path style="fill:#61428E;" d="M170.124,143.456c-3.458-5.554,1.772-16.202-5.06-19.927c-0.304-0.166-0.644,0.24-0.379,0.491
					c5.83,5.511,0.742,13.589,4.71,19.863C169.685,144.339,170.412,143.919,170.124,143.456L170.124,143.456z"/>
			</g>
			<g>
				<path style="fill:#61428E;" d="M179.391,143.737c1.337-5.884-0.21-13.705-5.582-17.244c-0.272-0.179-0.495,0.199-0.322,0.417
					c4.033,5.094,6.587,9.885,5.15,16.619C178.533,144.018,179.279,144.229,179.391,143.737L179.391,143.737z"/>
			</g>
			<g>
				<path style="fill:#61428E;" d="M195.181,154.574c2.367,2.571,4.849,5.077,3.874,8.875c-0.734,2.86-2.181,5.226-4.162,7.372
					c-0.172,0.186-0.005,0.586,0.274,0.47c2.91-1.208,4.632-5.654,5.006-8.604c0.46-3.624-2.002-6.325-4.638-8.467
					C195.289,154.02,194.959,154.332,195.181,154.574L195.181,154.574z"/>
			</g>
			<g>
				<path style="fill:#61428E;" d="M193.168,168.11c1.068-2.757,1.241-7.525-1.289-9.621c-0.209-0.173-0.569-0.017-0.483,0.281
					c0.421,1.454,1.27,2.679,1.518,4.22c0.27,1.671,0.095,3.324-0.394,4.941C192.393,168.353,193.015,168.504,193.168,168.11
					L193.168,168.11z"/>
			</g>
		</g>
	</g>
	<g>
		<g>
			<path style="fill:#21343D;" d="M633.021,346.003c0.283,0.73-1.727,8.273-1.833,9.049c-1.538,11.182-5.333,38.951-10.705,31.451
				c-1.518-2.12-2.517-18.127-2.295-23c0.279-6.14-1.721-5.59-6.5-8.451c-2.588-1.549-6.02-7.063-1.747-10.008
				c2.965-2.044,4.827-5.432,9.94-3.874C623.541,342.286,632.281,344.095,633.021,346.003z"/>
			<path style="fill:#21343D;" d="M682.59,163.827c0.75-0.222,8.106,2.392,8.87,2.561c11.02,2.439,38.391,8.473,30.48,13.219
				c-2.236,1.341-18.271,1.04-23.11,0.424c-6.097-0.776-5.712,1.262-8.95,5.794c-1.754,2.454-7.527,5.428-10.117,0.93
				c-1.797-3.121-5.023-5.251-3.055-10.221C678.116,172.974,680.628,164.409,682.59,163.827z"/>
			<path style="fill:#8E383E;" d="M532.417,318.065c6.937,13.605,64.298,29.52,79.271,36.987c2.5,0,6.299-2.798,8.193-13.882
				c-17.968-13.164-57.939-38.172-58.859-39.869c-1.116-2.057,16.255-61.422,18.333-60.964
				c28.722,6.333,67.562,24.711,76.124,15.167c3.236-3.607,27.376-44,34.401-69.68c1.802-6.587-12.211-11.086-13.787-7.994
				c-5.738,11.254-27.244,36.688-32.738,50.674c-19.5-9.548-36.066-31.902-56.333-42.167c-1.091-0.553-56.201,32.85-55.178,38.501
				C532.831,230.293,527.748,308.91,532.417,318.065z"/>
			<g>
				<path style="fill:#314F5B;" d="M620.697,372.842c1.264-0.289,2.922-0.681,3.861-1.635c0.205-0.208-0.003-0.553-0.281-0.483
					c-0.625,0.157-1.179,0.508-1.768,0.762c-0.648,0.28-1.316,0.498-1.999,0.678C620.072,372.28,620.257,372.943,620.697,372.842
					L620.697,372.842z"/>
			</g>
			<g>
				<path style="fill:#314F5B;" d="M621.063,367.612c0.687-0.381,1.393-0.71,2.138-0.963c0.632-0.215,1.336-0.29,1.905-0.646
					c0.406-0.254,0.204-0.797-0.229-0.844c-0.732-0.08-1.489,0.286-2.151,0.565c-0.738,0.312-1.438,0.688-2.113,1.118
					C620.131,367.151,620.559,367.892,621.063,367.612L621.063,367.612z"/>
			</g>
			<g>
				<path style="fill:#314F5B;" d="M621.088,362.154c1.272-0.964,2.687-1.432,4.266-1.582c0.687-0.065,0.716-1.108,0-1.094
					c-1.808,0.036-3.461,0.789-4.825,1.952C620.137,361.765,620.669,362.471,621.088,362.154L621.088,362.154z"/>
			</g>
			<g>
				<path style="fill:#314F5B;" d="M619.875,356.468c0.521-0.327,1.042-0.654,1.563-0.981c0.472-0.296,1.036-0.538,1.335-1.021
					c0.265-0.428-0.171-0.831-0.591-0.769c-0.53,0.078-0.996,0.532-1.43,0.83c-0.479,0.328-0.958,0.655-1.436,0.983
					C618.732,355.909,619.263,356.852,619.875,356.468L619.875,356.468z"/>
			</g>
			<g>
				<path style="fill:#314F5B;" d="M692.612,178.251c0.066-1.259-0.149-3.207-1.19-4.039c-0.266-0.213-0.623-0.076-0.654,0.271
					c-0.061,0.697,0.197,1.218,0.398,1.873c0.204,0.666,0.319,1.352,0.495,2.025C691.803,178.924,692.584,178.786,692.612,178.251
					L692.612,178.251z"/>
			</g>
			<g>
				<path style="fill:#314F5B;" d="M697.19,177.003c0.09-0.671,0.094-1.343,0.113-2.019c0.017-0.611,0.104-1.242-0.08-1.833
					c-0.114-0.363-0.625-0.364-0.738,0c-0.184,0.588-0.097,1.223-0.08,1.833c0.019,0.676,0.023,1.348,0.113,2.019
					C696.576,177.434,697.132,177.435,697.19,177.003L697.19,177.003z"/>
			</g>
			<g>
				<path style="fill:#314F5B;" d="M701.777,177.62c0.103-0.76,0.206-1.52,0.309-2.28c0.093-0.684,0.267-1.393,0.211-2.081
					c-0.038-0.456-0.644-0.552-0.798-0.108c-0.225,0.65-0.235,1.385-0.315,2.068c-0.089,0.762-0.178,1.524-0.267,2.286
					C700.861,177.989,701.711,178.108,701.777,177.62L701.777,177.62z"/>
			</g>
			<g>
				<path style="fill:#314F5B;" d="M707.011,177.615c0.123-0.662,0.246-1.324,0.369-1.985c0.098-0.526,0.277-1.023,0.011-1.516
					c-0.091-0.169-0.323-0.181-0.454-0.059c-0.406,0.38-0.385,0.932-0.459,1.456c-0.089,0.628-0.177,1.255-0.266,1.883
					C706.14,177.909,706.912,178.147,707.011,177.615L707.011,177.615z"/>
			</g>
			<g>
				<path style="fill:#772D34;" d="M561.189,235.772c3.805,1.837,9.089,3.585,13.317,2.358c0.613-0.178,0.427-0.975-0.141-1.044
					c-2.299-0.278-4.588-0.004-6.909-0.37c-2.059-0.325-4.032-0.88-5.972-1.645C561.083,234.914,560.8,235.584,561.189,235.772
					L561.189,235.772z"/>
			</g>
			<g>
				<path style="fill:#772D34;" d="M567.181,230.197c1.612,1.4,3.249,2.757,4.939,4.062c1.446,1.117,3.025,2.701,4.781,3.255
					c0.297,0.094,0.637-0.29,0.432-0.562c-1.011-1.345-2.679-2.204-4.022-3.204c-1.846-1.374-3.676-2.775-5.49-4.192
					C567.374,229.206,566.732,229.807,567.181,230.197L567.181,230.197z"/>
			</g>
		</g>
		<g>
			<path style="fill:#F8916E;" d="M461.777,79.165c3.719-2.574,4.374-6.562,6.656-10.984c-1.521-2.535-3.737,0.262-4.944,1.679
				c-1.207,1.418-3.138,3.599-3.338,1.918c0.439-2,0.091-2.946,1.056-5.309c2.8-6.86,7.401-13.868,3.697-12.96
				c-2.556,2.975-5.586,11.279-6.94,10.821c-0.043-5.508,0-12.41-0.807-14.701c-2.228-2.702-2.376,14.224-4.298,13.907
				c-2.111,0-3.635-12.473-5.528-11.591c-1.816,0.545,2.85,13.301,1.322,13.954c-1.753,0.345-5.554-8.349-7.418-6.847
				c-1.241,0.856,3.5,6.288,4.993,9.557c2.892,6.337-3.584,16.484-6.134,22.966c-1.293,10.556,10.315,6.714,13.376,7.219
				c0.656-2.934-1.56-9.991,0.689-12.596C456.227,83.803,459.209,80.943,461.777,79.165z"/>
			<path style="fill:#F8916E;" d="M648.966,145.614c1.646,4.212,5.375,5.771,9.15,9.012c2.818-0.895,0.608-3.697-0.492-5.199
				s-2.777-3.884-1.095-3.691c1.844,0.889,2.845,0.769,4.922,2.253c6.028,4.308,11.784,10.402,11.757,6.59
				c-2.305-3.174-9.685-8.039-8.926-9.25c5.369,1.23,12.075,2.865,14.49,2.609c3.144-1.543-13.291-5.595-12.539-7.393
				c0.487-2.054,12.975-0.658,12.554-2.703c-0.111-1.893-13.599-0.298-13.882-1.935c0.069-1.786,9.405-3.476,8.375-5.637
				c-0.546-1.405-6.926,1.954-10.452,2.651c-6.833,1.351-15.211-7.293-20.93-11.27c-9.972-3.695-8.914,8.486-10.112,11.348
				c2.703,1.315,10.081,0.789,12.097,3.578C645.735,139.144,647.829,142.705,648.966,145.614z"/>
			<path style="fill:#8EBDDA;" d="M601.125,100.165c5.818,1.14,38.1,15.931,43.896,18.838c1.932,0.969,1,4.333,5.153,5.055
				c1.319,0.229-4.643,12.91-6.32,15.945c-3.833-2.667-5-1.021-7.514-1.617c-13.424-3.184-25.653-5.962-35.986-14.716
				c-15.024,9.032-24.667,5.188-36,12.667c4.172,9.564,11.882,16.419,14.876,24.377c4.624,12.29,14.124,13.29,15.477,21.302
				c1.203,19.631-8.153,30.26-25.103,40.238c-3.549,2.089-14.885,7.101-19,7.25c-3.867,0.14-18.266,4.241-21.417,1.993
				c-18.289-13.048-11.274-28.581-31.083-46.243c-2.029-1.81-6.448-14.027-8.75-15.474c-5.392-3.389-11.927-4.252-18.161-5.557
				c-15.306-3.204-31.526-3.071-44.339-12.034c-1.307-0.914-6.75-7.041-3.75-16.435c3.048-9.544,6.738-29.579,12.25-42.692
				c2.192-5.214,5.762-5.891,6.445-12.612c5.772,0.992,10.84,4.673,16.464,6.306c-2.659,6.216-0.492,11.29-1.866,16.696
				c-2.489,9.793-6.577,19.294-7.543,29.764c9.285,2.505,25.783,0.559,35.281-0.941c21.586-3.408,25.067-6.029,38.969-18.521
				c3.426-3.079,9.393-5.113,13.818-6c4.856-0.973,18.058-1.888,23.099-2.605C575.528,102.943,596.283,99.216,601.125,100.165z"/>
			<path style="fill:#EA8165;" d="M520.604,118.503c-7.207-1.982-8.5-0.25-15.1-8.989c-5.186-1.827-25.88,0.167-15.613,13.989
				c7.214,9.712-0.557,13.78,1.714,18.106c3.75,7.144,16.761,3.626,21.948,0.284C520.604,137.348,526.885,120.231,520.604,118.503z"
				/>
			<g>
				<path style="fill:#74A7C1;" d="M489.56,135.584c-1.806,2.589-2.105,7.161-0.184,9.787c1.932,2.641,6.586,4.289,9.715,3.972
					c0.263-0.027,0.441-0.41,0.15-0.553c-2.326-1.145-5.077-1.247-7.261-2.75c-2.998-2.064-3.317-6.938-1.787-10.085
					C490.402,135.528,489.831,135.196,489.56,135.584L489.56,135.584z"/>
			</g>
			<g>
				<path style="fill:#74A7C1;" d="M504.889,149.543c9.771-0.384,19.159-9.101,20.805-18.657c0.094-0.546-0.633-0.749-0.829-0.228
					c-1.712,4.566-3.112,8.183-6.793,11.694c-3.626,3.459-8.106,6.042-13.183,6.348
					C504.351,148.732,504.343,149.564,504.889,149.543L504.889,149.543z"/>
			</g>
			<g>
				<path style="fill:#74A7C1;" d="M525.81,128.076c0.719-2.738,1.447-6.539-0.226-9.082c-0.218-0.331-0.736-0.125-0.643,0.271
					c0.314,1.332,0.711,2.547,0.725,3.936c0.016,1.578-0.249,3.15-0.46,4.71C525.155,128.294,525.704,128.477,525.81,128.076
					L525.81,128.076z"/>
			</g>
			<g>
				<path style="fill:#74A7C1;" d="M538.646,116.254c-0.041,7.142,5.104,14.429,12.414,15.764c0.345,0.063,0.732-0.392,0.388-0.666
					c-2.475-1.967-5.599-2.745-7.859-5.101c-2.62-2.732-3.915-6.24-3.958-9.997C539.624,115.621,538.65,115.619,538.646,116.254
					L538.646,116.254z"/>
			</g>
			<g>
				<path style="fill:#74A7C1;" d="M556.686,133.612c0.904,0.276,1.809,0.552,2.713,0.828c0.696,0.212,1.493,0.667,2.161,0.223
					c0.208-0.139,0.255-0.365,0.154-0.588c-0.325-0.719-1.263-0.762-1.952-0.951c-0.912-0.249-1.823-0.499-2.735-0.748
					C556.229,132.158,555.899,133.372,556.686,133.612L556.686,133.612z"/>
			</g>
			<g>
				<path style="fill:#74A7C1;" d="M489.588,166.193c-3.61-0.473-3.412-5.334-5.048-7.696c-0.242-0.349-0.91-0.266-0.873,0.237
					c0.142,1.967,1.123,4.41,2.12,6.12c0.833,1.431,2.097,2.457,3.801,2.448C490.324,167.298,490.274,166.282,489.588,166.193
					L489.588,166.193z"/>
			</g>
			<g>
				<path style="fill:#74A7C1;" d="M485.138,150.856c-0.452-2.767-0.615-5.838-1.513-8.495c-0.182-0.539-1.04-0.477-1.028,0.139
					c0.055,2.854,0.951,5.848,1.471,8.65C484.199,151.857,485.252,151.551,485.138,150.856L485.138,150.856z"/>
			</g>
			<g>
				<path style="fill:#74A7C1;" d="M479.797,159.086c0.702,2.255,1.98,5.009,4.07,6.292c0.299,0.184,0.72-0.196,0.502-0.502
					c-0.665-0.935-1.514-1.715-2.173-2.661c-0.717-1.028-1.277-2.142-1.706-3.319C480.334,158.467,479.657,158.639,479.797,159.086
					L479.797,159.086z"/>
			</g>
			<g>
				<path style="fill:#74A7C1;" d="M553.273,135.783c1.647,0.37,3.293,0.74,4.94,1.11c1.431,0.322,2.901,0.826,4.371,0.76
					c0.28-0.013,0.443-0.428,0.154-0.568c-1.317-0.637-2.861-0.765-4.293-1.033c-1.663-0.311-3.326-0.622-4.989-0.932
					C553.026,135.04,552.837,135.685,553.273,135.783L553.273,135.783z"/>
			</g>
			<g>
				<path style="fill:#74A7C1;" d="M510.293,183.347c4.776,4.841,11.251,4.579,17.451,3.127c4.975-1.165,9.717-2.675,14.889-2.78
					c5.315-0.108,10.275,1.083,15.299,2.668c0.661,0.209,0.878-0.757,0.278-1.009c-6.534-2.756-13.98-3.415-20.959-2.287
					c-8.72,1.408-18.883,7.088-26.615-0.061C510.408,182.794,510.073,183.124,510.293,183.347L510.293,183.347z"/>
			</g>
			<g>
				<path style="fill:#74A7C1;" d="M527.725,201.625c7.99-7.216,18.922-9.787,29.226-6.562c0.749,0.234,1.075-0.949,0.324-1.175
					c-10.655-3.212-22.024-0.521-29.881,7.405C527.18,201.51,527.503,201.827,527.725,201.625L527.725,201.625z"/>
			</g>
			<g>
				<path style="fill:#74A7C1;" d="M524.268,158.334c7.644,7.3,20.255,9.446,28.926,2.495c0.492-0.394-0.135-1.062-0.634-0.822
					c-9.685,4.65-19.216,5.143-27.839-2.126C524.41,157.619,523.965,158.045,524.268,158.334L524.268,158.334z"/>
			</g>
			<g>
				<path style="fill:#74A7C1;" d="M599.992,120.146c-0.438-1.546-0.743-3.106-0.919-4.705c-0.125-1.139,0.013-2.305-0.434-3.365
					c-0.133-0.315-0.544-0.156-0.642,0.084c-0.465,1.136-0.144,2.522,0.04,3.714c0.236,1.534,0.675,3.022,1.203,4.479
					C599.407,120.819,600.131,120.637,599.992,120.146L599.992,120.146z"/>
			</g>
			<g>
				<path style="fill:#74A7C1;" d="M601.957,120.602c0.84-3.083,2.008-6.979,1.552-10.205c-0.06-0.422-0.678-0.349-0.783,0
					c-0.455,1.501-0.433,3.128-0.649,4.68c-0.248,1.779-0.539,3.552-0.888,5.314C601.09,120.888,601.82,121.102,601.957,120.602
					L601.957,120.602z"/>
			</g>
			<g>
				<path style="fill:#74A7C1;" d="M435.033,138.178c2.342-1.872,4.691-2.235,7.57-2.56c0.339-0.038,0.498-0.596,0.089-0.66
					c-2.855-0.45-5.942,1.011-8.068,2.811C434.337,138.013,434.747,138.407,435.033,138.178L435.033,138.178z"/>
			</g>
			<g>
				<path style="fill:#74A7C1;" d="M441.297,142.262c0.627-0.964,1.37-1.83,2.245-2.577c0.813-0.694,1.886-1.114,2.622-1.876
					c0.241-0.25,0.09-0.811-0.315-0.76c-1.139,0.142-2.145,1.002-2.982,1.743c-0.966,0.855-1.775,1.859-2.447,2.958
					C440.077,142.311,440.942,142.808,441.297,142.262L441.297,142.262z"/>
			</g>
			<g>
				<path style="fill:#74A7C1;" d="M442.389,89.378c1.649,1.258,3.611,2.164,5.49,3.026c1.489,0.683,3.085,1.584,4.724,1.758
					c0.446,0.047,0.489-0.548,0.205-0.757c-1.546-1.138-3.606-1.662-5.358-2.454c-1.6-0.724-3.16-1.569-4.815-2.158
					C442.263,88.66,442.125,89.177,442.389,89.378L442.389,89.378z"/>
			</g>
			<g>
				<path style="fill:#74A7C1;" d="M444.244,87.111c0.141-0.492,0.283-0.984,0.424-1.475c0.131-0.455,0.299-0.891,0.253-1.37
					c-0.026-0.276-0.347-0.364-0.509-0.138c-0.28,0.391-0.354,0.85-0.47,1.308c-0.125,0.496-0.25,0.992-0.376,1.488
					C443.455,87.363,444.119,87.546,444.244,87.111L444.244,87.111z"/>
			</g>
			<g>
				<path style="fill:#74A7C1;" d="M447.023,88.369c0.167-0.571,0.335-1.141,0.502-1.712c0.146-0.5,0.378-0.999,0.202-1.513
					c-0.101-0.294-0.433-0.378-0.666-0.176c-0.407,0.354-0.456,0.898-0.579,1.401c-0.141,0.578-0.282,1.156-0.424,1.733
					C445.906,88.729,446.842,88.988,447.023,88.369L447.023,88.369z"/>
			</g>
			<g>
				<path style="fill:#74A7C1;" d="M449.998,89.984c0.386-0.703,0.829-1.795,0.51-2.591c-0.147-0.367-0.67-0.418-0.799,0
					c-0.107,0.346-0.076,0.707-0.14,1.061c-0.069,0.375-0.194,0.726-0.367,1.064C448.934,90.044,449.711,90.507,449.998,89.984
					L449.998,89.984z"/>
			</g>
			<g>
				<path style="fill:#74A7C1;" d="M453.038,90.874c0.105-0.67,0.21-1.341,0.315-2.011c0.09-0.577,0.23-1.141,0.124-1.72
					c-0.062-0.338-0.592-0.4-0.743-0.097c-0.261,0.525-0.279,1.11-0.351,1.686c-0.084,0.673-0.167,1.347-0.251,2.02
					C452.069,91.263,452.958,91.388,453.038,90.874L453.038,90.874z"/>
			</g>
			<g>
				<path style="fill:#74A7C1;" d="M639.757,135.366c0.75-1.842,1.102-3.878,1.686-5.785c0.52-1.698,1.265-3.339,1.502-5.104
					c0.059-0.439-0.556-0.496-0.757-0.205c-1.085,1.571-1.566,3.537-2.102,5.351c-0.536,1.817-1.137,3.722-1.204,5.624
					C638.863,135.789,639.581,135.8,639.757,135.366L639.757,135.366z"/>
			</g>
			<g>
				<path style="fill:#74A7C1;" d="M641.251,135.138c0.555,0.216,1.176,0.339,1.766,0.425c0.803,0.117,0.965-1.005,0.15-1.105
					c-0.592-0.073-1.224-0.118-1.816-0.057C640.924,134.446,640.848,134.981,641.251,135.138L641.251,135.138z"/>
			</g>
			<g>
				<path style="fill:#74A7C1;" d="M642.729,131.209c0.652,0.167,1.213,0.445,1.772,0.814c0.153,0.101,0.443,0.082,0.562-0.073
					c0.634-0.819-1.64-1.507-2.094-1.616C642.404,130.199,642.163,131.064,642.729,131.209L642.729,131.209z"/>
			</g>
			<g>
				<path style="fill:#74A7C1;" d="M644.969,125.748c0.559,0.195,1.116,0.412,1.682,0.588c0.341,0.106,0.932,0.152,1.062-0.299
					c0.117-0.407-0.329-0.712-0.651-0.819c-0.592-0.197-1.203-0.35-1.801-0.524C644.577,124.495,644.311,125.518,644.969,125.748
					L644.969,125.748z"/>
			</g>
			<g>
				<path style="fill:#74A7C1;" d="M643.773,128.286c0.97,0.133,1.837,0.601,2.604,1.195c0.276,0.214,0.793-0.069,0.54-0.417
					c-0.724-0.995-1.844-1.432-3.063-1.377C643.531,127.702,643.416,128.237,643.773,128.286L643.773,128.286z"/>
			</g>
			<g>
				<path style="fill:#A54A53;" d="M461.02,94.801c-0.586,1.288-0.627,2.661-0.111,3.984c0.411,1.054,1.365,2.545,2.66,2.431
					c0.294-0.026,0.487-0.312,0.337-0.588c-0.454-0.835-1.35-1.307-1.81-2.176c-0.545-1.031-0.618-2.209-0.276-3.314
					C461.963,94.675,461.228,94.344,461.02,94.801L461.02,94.801z"/>
			</g>
		</g>
		<g>
			<path style="fill:#F8916E;" d="M504.744,123.863c-0.39,2.2-2.84,6.57-4.59,7.97c-5.17,4.15-16.36-0.23-23.91-9.18
				c-0.36-0.43-0.72-0.87-1.06-1.32c-0.29-0.38-0.58-0.77-0.85-1.15c-8.76-12.11-10.28-25.65,1.53-31.82
				c4.2-2.19,9.37-2.01,13.77-0.26c4.39,1.76,8.08,4.95,11.15,8.56c1.76,2.06,1.63,4.29,2.57,6.84
				C506.044,110.823,506.244,115.503,504.744,123.863z"/>
			<path style="fill:#8E383E;" d="M495.52,106.819c-0.901-2.722-1.659-8.923-6.326-9.98c-2.827-0.64-4.307,0.633-6.575,2.439
				c-2.267,1.806-5.121,3.553-7.892,2.704c-1.246-0.382-2.443-1.279-3.716-0.999c-0.747,0.164-1.487,0.542-1.98,1.127
				c-3.845,4.561-7.435,4.62-9.428,2.289c-3.62-4.232-1.413-16.976,0.17-21.156c0.73-1.927,1.806-3.854,3.597-4.873
				s4.427-0.76,5.492,1.004c0.313,0.519,0.556,1.197,1.146,1.339c0.563,0.135,1.081-0.315,1.493-0.721
				c2.662-2.615,15.085-18.041,17.636-5.785c0.532,2.557,2.408,3.942,5.02,3.982c2.612,0.04,5.312-0.411,7.779,0.448
				c0.5,0.174,0.998,0.413,1.333,0.822c0.841,1.027-1.658,4.649-0.994,5.798c1.349,2.336,5.861,0.711,7.098,3.108
				c0.934,1.809-1.093,3.794-1.143,5.829c-0.037,1.499,0.999,2.787,1.482,4.206c0.708,2.083,0.115,4.551-1.464,6.084
				c-2.907,2.824-7.474-1.169-8.094,1.005C499.683,107.142,496.145,108.708,495.52,106.819z"/>
			<path style="fill:#F8916E;" d="M506.194,103.075c-1.167-3.333-3.547-5.325-6-5.091c-4.402,0.421-1.87,7.49-1.195,9.208
				c0,0,2.209,5.391,6.529,3.049C507.429,109.211,506.909,105.116,506.194,103.075z"/>
			<g>
				<path style="fill:#E07255;" d="M477.886,111.774c0.819,1.841,2.43,3.816,1.483,5.86c-0.575,1.242-0.605,1.561,0.215,2.782
					c0.519,0.774,0.939,1.457,1.957,1.481c1.137,0.027,2.926-0.617,3.667-1.496c0.216-0.257,0.16-0.694-0.207-0.784
					c-0.64-0.156-0.858-0.15-1.517,0.002c-0.459,0.105-1.35,0.613-1.768,0.491c-1.515-0.443-0.812-1.757-0.664-2.687
					c0.378-2.374-1.22-4.229-2.329-6.138C478.402,110.734,477.638,111.217,477.886,111.774L477.886,111.774z"/>
			</g>
			<g>
				<path style="fill:#E07255;" d="M500.224,104.101c-0.212-0.644-0.061-2.16,0.504-2.612c0.726-0.58,1.46,0.353,1.896,0.863
					c0.66,0.773,1.101,1.615,1.408,2.584c0.208,0.657,0.832,3.059-0.454,3.226c-0.516,0.067-0.536,0.882,0,0.828
					c3.081-0.311,0.52-6.527-0.598-7.775c-2.222-2.479-4.51,0.764-3.384,3.15C499.762,104.717,500.346,104.47,500.224,104.101
					L500.224,104.101z"/>
			</g>
			<path style="fill:#8E383E;" d="M494.154,127.223c-0.32,0.34-0.72,0.58-1.15,0.76c-1.4,0.58-3,0.42-4.39-0.2
				c-0.29-0.12-0.56-0.27-0.83-0.43c-0.87-0.54-3.98-2.38-3.07-2.99c1.96-1.3,6.85-5.14,8.73-7.52c0.61,1.88,1.07,3.82,1.37,5.78
				c0.03,0.14,0.05,0.27,0.07,0.41C495.104,124.483,495.164,126.163,494.154,127.223z"/>
			<path style="fill:#EF6856;" d="M492.047,112.151c0.643,0.975,0.15,2.434-1.1,3.258c-1.25,0.824-2.785,0.702-3.428-0.273
				c-0.643-0.975-0.15-2.434,1.1-3.258C489.869,111.054,491.404,111.176,492.047,112.151z"/>
			<path style="fill:#EF6856;" d="M476.734,122.403c-0.16,0.11-0.32,0.19-0.49,0.25c-0.36-0.43-0.72-0.87-1.06-1.32
				c-0.29-0.38-0.58-0.77-0.85-1.15c0.16-0.2,0.36-0.38,0.59-0.53c0.97-0.64,2.17-0.55,2.67,0.21
				C478.094,120.623,477.714,121.763,476.734,122.403z"/>
			<path style="fill:#8E383E;" d="M486.79,108.908c0.421,0.951,0.132,2-0.645,2.344c-0.777,0.344-1.748-0.148-2.168-1.099
				c-0.421-0.951-0.132-2,0.645-2.344C485.398,107.465,486.369,107.957,486.79,108.908z"/>
			<path style="fill:#8E383E;" d="M475.911,113.722c0.421,0.951,0.132,2-0.645,2.344c-0.777,0.344-1.748-0.148-2.168-1.099
				c-0.421-0.951-0.132-2,0.645-2.344C474.52,112.279,475.491,112.771,475.911,113.722z"/>
			<g>
				<path style="fill:#8E383E;" d="M470.728,110.364c0.639-0.629,1.187-1.141,2.123-1.246c0.543-0.061,1.012-0.421,1.012-1.012
					c0-0.494-0.466-1.08-1.012-1.012c-1.464,0.182-2.949,1.038-3.491,2.473C469.059,110.364,470.181,110.902,470.728,110.364
					L470.728,110.364z"/>
			</g>
			<g>
				<path style="fill:#8E383E;" d="M480.606,106.102c0.96-1.236,2.125-1.962,3.734-1.708c1.271,0.201,1.855-1.668,0.545-1.976
					c-2.259-0.53-4.845,0.67-5.728,2.84C478.838,106.042,480.085,106.773,480.606,106.102L480.606,106.102z"/>
			</g>
			<path style="fill:#E54866;" d="M494.154,127.223c-0.32,0.34-0.72,0.58-1.15,0.76c-1.4,0.58-3,0.42-4.39-0.2
				c0.6-2.43,2.24-4.68,6.2-5.16c0.03,0.14,0.05,0.27,0.07,0.41C495.104,124.483,495.164,126.163,494.154,127.223z"/>
			<g>
				<path style="fill:#A54A53;" d="M464.407,88.245c0.035,2.729-0.809,5.869,0.954,8.268c1.118,1.521,3.697,2.441,5.157,0.891
					c0.365-0.387,0.009-1.158-0.555-0.953c-5.094,1.847-4.397-5.191-4.729-8.206C465.178,87.729,464.4,87.7,464.407,88.245
					L464.407,88.245z"/>
			</g>
			<g>
				<path style="fill:#A54A53;" d="M471.667,85.962c-0.621,2.13-0.392,4.368,0.811,6.263c0.91,1.433,2.817,3.145,4.629,2.913
					c0.39-0.05,0.545-0.504,0.201-0.742c-1.253-0.87-2.648-1.165-3.719-2.381c-1.43-1.624-1.696-3.805-1.153-5.84
					C472.567,85.677,471.81,85.47,471.667,85.962L471.667,85.962z"/>
			</g>
			<g>
				<path style="fill:#A54A53;" d="M477.86,84.143c-0.377,2.747,0.668,8.712,4.244,9.064c0.504,0.05,0.538-0.607,0.229-0.844
					c-2.491-1.913-3.861-4.928-3.567-8.097C478.813,83.754,477.931,83.627,477.86,84.143L477.86,84.143z"/>
			</g>
			<g>
				<path style="fill:#A54A53;" d="M489.137,90.503c-3.974-0.222-1.882-6.156-2.877-8.424c-0.144-0.329-0.61-0.131-0.626,0.169
					c-0.151,2.859-0.804,8.959,3.503,9.146C489.712,91.418,489.707,90.535,489.137,90.503L489.137,90.503z"/>
			</g>
			<g>
				<path style="fill:#A54A53;" d="M494.38,83.601c1.772-0.208,3.869-0.246,4.445,1.849c0.304,1.106,0.173,2.279,0.68,3.338
					c0.736,1.536,2.533,2.618,4.226,2.149c0.568-0.157,0.396-0.909-0.131-0.967c-2.366-0.261-3.159-1.399-3.496-3.599
					c-0.137-0.895-0.244-1.777-0.778-2.536c-1.128-1.604-3.212-1.498-4.946-1.265C493.736,82.656,493.717,83.679,494.38,83.601
					L494.38,83.601z"/>
			</g>
			<g>
				<path style="fill:#A54A53;" d="M495.375,89.137c0.347,1.829,1.648,3.977,3.542,4.524c0.822,0.237,1.184-0.857,0.552-1.308
					c-0.646-0.462-1.32-0.791-1.876-1.383c-0.567-0.604-0.956-1.324-1.193-2.115C496.201,88.193,495.249,88.471,495.375,89.137
					L495.375,89.137z"/>
			</g>
			<g>
				<path style="fill:#A54A53;" d="M494.147,94.466c0.453,0.386,0.906,0.772,1.359,1.157c0.413,0.352,0.824,0.679,1.377,0.743
					c0.259,0.03,0.452-0.278,0.384-0.504c-0.152-0.508-0.56-0.851-0.957-1.175c-0.438-0.357-0.875-0.714-1.313-1.071
					C494.406,93.133,493.553,93.96,494.147,94.466L494.147,94.466z"/>
			</g>
		</g>
	</g>
</g>
</svg>
